<svg xmlns="http://www.w3.org/2000/svg" width="26" height="26" viewBox="0 0 26 26">
  <g id="グループ_1" data-name="グループ 1" transform="translate(-176 -112)">
    <circle id="楕円形_1" data-name="楕円形 1" cx="13" cy="13" r="13" transform="translate(176 112)" fill="#ef0000"/>
    <path id="パス_1" data-name="パス 1" d="M1.293-.438a1.77,1.77,0,0,1,.288-.806,1.444,1.444,0,0,1,.557-.487A1.662,1.662,0,0,1,2.824-1.9,1.4,1.4,0,0,1,3.5-1.75a1.345,1.345,0,0,1,.527.477,1.542,1.542,0,0,1,.229.8,1.294,1.294,0,0,1-.4,1.1,1.523,1.523,0,0,1-.975.408A1.6,1.6,0,0,1,1.86.7,1.518,1.518,0,0,1,1.293-.438Zm.2-10.979a1.758,1.758,0,0,1,.5-.746,1.126,1.126,0,0,1,.666-.288,1.058,1.058,0,0,1,.676.209,1.557,1.557,0,0,1,.527.726q.04,1.034.07,1.949t.04,1.77q.01.855-.01,1.691T3.9-4.4a1.161,1.161,0,0,1-.408.925,1.225,1.225,0,0,1-.835.288A1.311,1.311,0,0,1,1.84-3.52a1.144,1.144,0,0,1-.368-.915V-11.3Z" transform="translate(187 131)" fill="#fff"/>
  </g>
</svg>
