<svg xmlns="http://www.w3.org/2000/svg" width="20" height="20" viewbox="0 0 20.059 20.06"><defs><clipPath id="a"><path fill="#64666A" d="M0 0h20.059v20.06H0z"/></clipPath></defs><g  clip-path="url(#a)"><path d="M10.029 0a10.03 10.03 0 1 0 10.03 10.029A10.029 10.029 0 0 0 10.029 0m-.706 5.594a10.568 10.568 0 0 1-2.8-.552 8.351 8.351 0 0 1 2.8-3.308Zm0 1.417v2.311h-3.9a11.561 11.561 0 0 1 .567-2.97 12.02 12.02 0 0 0 3.334.659m0 3.725v2.288a12.01 12.01 0 0 0-3.349.666 11.466 11.466 0 0 1-.552-2.954Zm0 3.706v3.915A8.367 8.367 0 0 1 6.5 15a10.534 10.534 0 0 1 2.818-.563m1.413 0a10.532 10.532 0 0 1 2.823.563 8.379 8.379 0 0 1-2.818 3.353Zm0-1.417v-2.284h3.9a11.472 11.472 0 0 1-.552 2.954 12 12 0 0 0-3.349-.666m0-3.7V7.01a12.032 12.032 0 0 0 3.334-.659 11.565 11.565 0 0 1 .566 2.97Zm0-3.729V1.733a8.345 8.345 0 0 1 2.8 3.307 10.568 10.568 0 0 1-2.8.554m2.47-3.575a8.634 8.634 0 0 1 2.756 1.761 8.7 8.7 0 0 1-1.118.7A10.476 10.476 0 0 0 13.2 2.019M5.224 4.48a8.679 8.679 0 0 1-1.116-.7 8.6 8.6 0 0 1 2.754-1.761A10.568 10.568 0 0 0 5.224 4.48m-.537 1.31a13.011 13.011 0 0 0-.677 3.532H1.445A8.566 8.566 0 0 1 3.16 4.835a9.9 9.9 0 0 0 1.527.955m-.68 4.945a13.066 13.066 0 0 0 .664 3.516 10.025 10.025 0 0 0-1.521.958 8.558 8.558 0 0 1-1.7-4.474Zm1.2 4.831a10.6 10.6 0 0 0 1.613 2.459 8.65 8.65 0 0 1-2.726-1.759 8.534 8.534 0 0 1 1.11-.7m9.65 0a8.446 8.446 0 0 1 1.109.7 8.6 8.6 0 0 1-2.724 1.757 10.562 10.562 0 0 0 1.616-2.456m.534-1.315a13.119 13.119 0 0 0 .664-3.516h2.562a8.56 8.56 0 0 1-1.7 4.474 10.11 10.11 0 0 0-1.521-.958m.661-4.929a13.065 13.065 0 0 0-.676-3.532 9.878 9.878 0 0 0 1.521-.956 8.563 8.563 0 0 1 1.717 4.487Z" fill="#64666A"/></g></svg>